<?xml version="1.0" encoding="UTF-8"?><svg xmlns="http://www.w3.org/2000/svg" viewBox="0 0 1683.02 1683.02"><g id="Layer_1"><g id="Layer_2"><circle cx="841.51" cy="841.51" r="801.51" fill="#fff" stroke="#3b85fe" stroke-width="80"/><path d="M841.51,674.78c1.93,0,1.93-3,0-3s-1.93,3,0,3h0Z" fill="#3b85fe"/></g></g><g id="Layer_2-2"><path d="M1424.63,933.44c0-69.77-9.09-137.95-12.73-145.45-2.73-5.45-20.23-19.77-60-46.82-40.23-27.5-39.32-23.41-46.59-41.36,6.59-2.05,12.95-5.91,16.82-6.36,8.64-.91,9.09,7.27,27.04,7.27s56.81-4.77,64.77-12.73,10.45-10.68,10.45-17.73-4.09-21.59-11.82-30.23c-7.73-8.64-40.68-12.95-60-15.45-19.32-2.5-22.04,0-27.04,3.18-7.95,5-8.41,50.68-8.41,50.68l-18.86,.45c-12.27-30.23-29.32-91.13-55.91-139.08-29.09-52.27-59.54-68.63-72.27-72.72-12.5-3.86-23.86-6.59-109.08-15.23-87.04-9.09-156.35-10.23-218.17-10.23s-131.13,1.36-218.17,10.23c-85.22,8.86-96.59,11.36-109.08,15.23-12.5,3.86-43.18,20.45-72.27,72.72-26.59,47.95-43.63,108.86-55.91,139.08l-18.86-.45s-.23-45.68-8.41-50.68c-5-3.18-7.73-5.91-27.04-3.18-19.32,2.73-52.27,6.82-60,15.45-7.73,8.64-11.82,23.18-11.82,30.23s2.5,10,10.45,17.73c7.95,7.95,46.82,12.73,64.77,12.73s18.41-8.18,27.04-7.27c3.86,.45,10.45,4.32,16.82,6.36-7.5,17.95-6.36,13.86-46.59,41.36-39.77,27.27-57.5,41.36-60,46.82-3.64,7.5-12.73,75.68-12.73,145.45s5,132.49,5,154.76c0,9.32,0,25.68,2.05,41.36,1.36,9.32,3.41,18.41,7.05,25.45,6.14,12.5,11.82,13.64,35.23,12.5,30-1.36,73.4,0,118.18,1.82,30,1.14,60.68,2.27,87.95,2.95,68.18,1.36,48.18-10,77.27-9.54,29.09,.45,143.86,5.23,248.85,5.23s219.99-4.77,248.85-5.23c29.09-.45,9.09,10.91,77.27,9.54,27.27-.45,57.95-1.82,87.95-2.95,44.77-1.59,88.4-3.18,118.18-1.82,23.41,1.14,29.09,0,35.23-12.5,3.41-7.05,5.68-16.14,7.05-25.45,2.27-15.68,2.05-32.04,2.05-41.36,.45-22.04,5.45-85,5.45-154.76h0ZM456.95,589.37c10.91-25.45,43.63-76.59,59.54-85.68,3.86-2.27,37.73-12.95,122.49-18.64,77.95-5.23,164.08-7.27,204.08-7.27s126.13,2.05,204.08,7.27c84.54,5.68,118.86,16.14,122.49,18.64,20.45,14.09,48.63,60.22,59.54,85.68,10.91,25.45,25.45,75.45,22.73,82.27s2.73,10.23-34.09,7.27c-36.59-2.73-266.35-5.68-374.52-5.68s-337.71,2.95-374.52,5.68c-36.82,2.73-31.36-.45-34.09-7.27-3.18-6.82,11.36-56.59,22.27-82.27h0Zm83.63,284.53c-16.36,4.09-26.13,12.95-46.59,12.73-20.45,0-75.68-9.32-87.5-9.77-11.82-.45-22.27,7.95-28.41,9.54-6.14,1.59-18.18-2.73-36.36-8.41-18.18-5.68-28.86-4.09-34.77-28.86-6.14-24.54,0-59.77,0-59.77,39.32-1.82,77.27,1.82,148.4,21.82,71.13,20,110.68,58.41,110.68,58.41,0,0-9.09,.23-25.45,4.32Zm534.52,179.08c-32.5,4.32-168.63,5.45-232.26,5.45s-199.76-1.36-232.26-5.45c-33.18-4.32-76.36-44.09-46.59-75.68,40.23-42.95,32.73-41.59,124.08-53.41,79.09-10.23,139.08-10.68,154.76-10.68s75.68,.68,154.76,10.68c91.36,11.82,83.86,10.45,124.08,53.41,29.77,31.59-13.41,71.36-46.59,75.68Zm303.62-203.62c-6.14,24.54-16.59,23.18-34.77,28.86-18.18,5.68-30.23,9.77-36.36,8.41-6.14-1.36-16.59-9.77-28.41-9.54-11.82,.45-67.04,9.77-87.5,9.77s-30.23-8.64-46.59-12.73c-16.36-4.09-25.45-4.09-25.45-4.09,0,0,39.32-38.63,110.68-58.41,71.13-20,109.08-23.64,148.4-21.82,0-.45,6.14,34.77,0,59.54h0Z" fill="#3b85fe"/><path d="M1417.58,1147.74c-1.36,9.32-3.64,18.41-7.05,25.45-6.14,12.5-12.04,13.64-35.23,12.5-30-1.36-72.95,0-118.4,1.82,0,12.5,.45,18.41,.45,18.41,2.95,34.32,18.41,35.45,24.54,35.45h97.72c8.64,0,16.59,0,22.73-4.09,7.95-5.23,11.36-20.45,14.32-47.04,.45-3.86,.68-8.86,.91-14.77v-.23c0-1.82,.23-4.09,.23-6.59v-2.5c0-6.14,0-12.95-.23-18.41h0Zm-1149.48,0c1.36,9.32,3.64,18.41,7.05,25.45,6.14,12.5,12.04,13.64,35.23,12.5,30-1.36,72.95,0,118.4,1.82,0,12.5-.45,18.41-.45,18.41-2.95,34.32-18.41,35.45-24.54,35.45h-97.72c-8.64,0-15.91,0-22.73-4.09-8.18-4.77-11.36-20.45-14.32-47.04-.45-3.86-.68-8.86-.91-14.77v-.23c0-1.82-.23-4.09-.23-6.59v-2.5c.23-6.14,.23-12.95,.23-18.41Z" fill="#3b85fe"/></g></svg>