<svg xmlns="http://www.w3.org/2000/svg" width="50.43" height="21.26" viewBox="0 0 50.43 21.26">
    <path d="M106.777,112.717h-1.1a.832.832,0,0,1,0-1.663h1.1a.832.832,0,0,1,0,1.663Z"
        transform="translate(-83.939 -103.504)" />
    <path
        d="M50.422,83.545c-.515-3.5-6.883-5.383-12.72-5.4-8.663-6.337-19.4-6.591-31.9-.752l-3.769.629A2.42,2.42,0,0,0,0,80.412v5.617a2.429,2.429,0,0,0,.589,1.585L1.9,89.131a2.426,2.426,0,0,0,1.839.843H4.96a5.5,5.5,0,0,0,10.808,0H36.132a5.5,5.5,0,0,0,10.809,0H48a2.431,2.431,0,0,0,2.428-2.428v-3.88Zm-2.392-1h-.741l-.481-.844A6.015,6.015,0,0,1,48.03,82.548ZM34.7,78.141H17.6l-1.343-2.635C23.179,74.019,29.279,74.9,34.7,78.141ZM10.365,92.788a3.841,3.841,0,1,1,3.841-3.841A3.845,3.845,0,0,1,10.365,92.788Zm31.172,0a3.841,3.841,0,1,1,3.841-3.841A3.845,3.845,0,0,1,41.537,92.788ZM48,88.311H47a5.5,5.5,0,0,0-10.928,0H15.828a5.5,5.5,0,0,0-10.928,0H3.736a.766.766,0,0,1-.58-.266L1.848,86.528a.764.764,0,0,1-.185-.5V82.4H2.57a.832.832,0,0,0,0-1.663H1.663v-.329a.763.763,0,0,1,.64-.755L6.3,78.991l.1-.049a48.411,48.411,0,0,1,8.192-3.035l1.749,3.432,3.174,6.516a.831.831,0,1,0,1.495-.728L18.417,79.8H37.153l0,0,.279,0a24.21,24.21,0,0,1,6.893.906l1.756,3.082a.832.832,0,0,0,.722.42h1.962v3.335A.766.766,0,0,1,48,88.311Z"
        transform="translate(0 -73.19)" />
    <path
        d="M197.686,138.952a2.643,2.643,0,1,0,2.644,2.644A2.646,2.646,0,0,0,197.686,138.952Zm0,3.624a.981.981,0,1,1,.981-.981A.982.982,0,0,1,197.686,142.576Z"
        transform="translate(-156.149 -125.838)" />
    <path
        d="M41.363,138.952a2.643,2.643,0,1,0,2.644,2.644A2.647,2.647,0,0,0,41.363,138.952Zm0,3.624a.981.981,0,1,1,.981-.981A.982.982,0,0,1,41.363,142.576Z"
        transform="translate(-30.998 -125.838)" />
</svg>