<svg xmlns="http://www.w3.org/2000/svg" width="32.405" height="33.204" viewBox="0 0 32.405 33.204"><path d="M16.174,0,14.293,1.881,16.712,4.3,7.436,13.576a4.06,4.06,0,0,0,0,5.786l.136.136,8.471,8.471a4.06,4.06,0,0,0,5.786,0L32.046,17.753l.941-.941L19.936,3.762,18.859,2.685l-.272-.272Zm2.419,6.182L29.218,16.806,26.26,19.764H11.6L9.317,17.481a1.462,1.462,0,0,1,0-2.017Zm16,15.334-1.077,1.609s-.675,1.077-1.479,2.283a13.046,13.046,0,0,0-.941,1.881,4.432,4.432,0,0,0-.538,1.881,4.035,4.035,0,1,0,8.069,0,4.952,4.952,0,0,0-.538-2.017c-.266-.675-.668-1.343-.941-1.881a22.624,22.624,0,0,0-1.479-2.283Z" transform="translate(-6.225)" fill="#bc0000"/></svg>