<svg xmlns="http://www.w3.org/2000/svg" width="23.417" height="23.417" viewBox="0 0 23.417 23.417"><path d="M12.708,8.451a4.258,4.258,0,1,0,4.258,4.258A4.256,4.256,0,0,0,12.708,8.451Zm9.516,3.193a9.574,9.574,0,0,0-8.451-8.451V1H11.644V3.193a9.574,9.574,0,0,0-8.451,8.451H1v2.129H3.193a9.574,9.574,0,0,0,8.451,8.451v2.193h2.129V22.224a9.574,9.574,0,0,0,8.451-8.451h2.193V11.644H22.224Zm-9.516,8.515a7.451,7.451,0,1,1,7.451-7.451A7.445,7.445,0,0,1,12.708,20.159Z" transform="translate(-1 -1)" fill="#fff"/></svg>