<svg xmlns="http://www.w3.org/2000/svg" width="30" height="30" viewBox="0 0 30 30"><path d="M222,151.693a7.033,7.033,0,0,1-.213,1.5,8.465,8.465,0,0,1-.447,1.46,5.713,5.713,0,0,1-2.6,2.259,7.9,7.9,0,0,1-5.082,1.012,9.207,9.207,0,0,1-1.225-.266q-.682-.192-1.012-.309t-1.183-.437q-.852-.32-1.044-.384a19.3,19.3,0,0,1-3.729-1.768,35.79,35.79,0,0,1-10.227-10.227,19.3,19.3,0,0,1-1.768-3.729q-.064-.192-.384-1.044t-.437-1.183q-.117-.33-.309-1.012a9.209,9.209,0,0,1-.266-1.225,7.9,7.9,0,0,1,1.012-5.082,5.712,5.712,0,0,1,2.259-2.6,8.463,8.463,0,0,1,1.46-.447,7.032,7.032,0,0,1,1.5-.213,1.193,1.193,0,0,1,.447.064q.384.128,1.129,1.619.234.4.639,1.151t.746,1.353q.341.607.661,1.14.064.085.373.533a5.954,5.954,0,0,1,.458.756,1.39,1.39,0,0,1,.149.607,1.768,1.768,0,0,1-.607,1.065,10.387,10.387,0,0,1-1.321,1.172,12.83,12.83,0,0,0-1.321,1.129,1.623,1.623,0,0,0-.607.98,1.44,1.44,0,0,0,.107.479,4.652,4.652,0,0,0,.181.437q.075.149.3.511t.245.4a21.118,21.118,0,0,0,8.714,8.714q.043.021.4.245t.511.3a4.652,4.652,0,0,0,.437.181,1.44,1.44,0,0,0,.479.107,1.623,1.623,0,0,0,.98-.607,12.83,12.83,0,0,0,1.129-1.321,10.388,10.388,0,0,1,1.172-1.321,1.768,1.768,0,0,1,1.065-.607,1.39,1.39,0,0,1,.607.149,5.955,5.955,0,0,1,.756.458q.447.309.533.373.533.32,1.14.661t1.353.746q.746.4,1.151.639,1.491.746,1.619,1.129A1.193,1.193,0,0,1,222,151.693Z" transform="translate(-192 -128)" fill="#1b1b1b"/></svg>