<svg xmlns="http://www.w3.org/2000/svg" width="1683.01" height="1834.83" viewBox="0 0 1683.01 1834.83">
    <g id="Layer_2">
        <circle cx="841.51" cy="841.51" r="801.51" fill="#fff" stroke="#00bf2b" stroke-width="80" />
        <path d="M841.51,674.78c1.93,0,1.93-3,0-3s-1.93,3,0,3h0Z" fill="#3b85fe" />
    </g>
    <g id="Layer_1">
        <path
            d="M1408.74,1436.5c17.79,1.18,33.17-12.28,34.35-30.07,.04-.67,.07-1.34,.07-2.02-15.32-223.47-189.44-409.38-424.88-472.56,142.6-58.36,241.63-185.16,241.63-332.18,0-202.35-187.38-366.4-418.5-366.4s-418.5,164.05-418.5,366.4c0,147.02,99.02,273.82,241.8,332.18-235.42,63.17-409.54,249.1-424.87,472.56,.06,17.82,14.56,32.22,32.38,32.16,.69,0,1.38-.03,2.07-.07h0M841.42,905.76"
            fill="#00bf2b" stroke="#00bf2b" />
        <ellipse cx="841.51" cy="1443.8" rx="531.79" ry="167.35" fill="#00bf2b" stroke="#3b85fe" />
        <circle cx="841.51" cy="1758.72" r="71.12" fill="none" stroke="#00bf2b" stroke-width="10" />
    </g>
</svg>