<svg xmlns="http://www.w3.org/2000/svg" width="121.002" height="121" viewBox="0 0 121.002 121">
    <path
        d="M300.77,250.486c-1.528-22.286-18.89-40.827-42.366-47.128,14.219-5.82,24.094-18.466,24.094-33.128,0-20.18-18.684-36.541-41.73-36.541s-41.73,16.361-41.73,36.541c0,14.662,9.874,27.308,24.111,33.128-23.475,6.3-40.837,24.842-42.365,47.128a3.218,3.218,0,0,0,3.435,3.2h0a3.294,3.294,0,0,0,3.435-2.812c1.631-24.436,24.8-43.8,53.116-43.8s51.484,19.368,53.133,43.8a3.27,3.27,0,0,0,3.435,2.812A3.219,3.219,0,0,0,300.77,250.486ZM205.907,170.23c0-16.857,15.61-30.526,34.861-30.526s34.861,13.669,34.861,30.526-15.61,30.526-34.861,30.526S205.907,187.087,205.907,170.23Z"
        transform="translate(-180.275 -133.189)" fill="#000" stroke="#000" stroke-width="1" />
</svg>